<?xml version="1.0" encoding="UTF-8"?>
<svg xmlns="http://www.w3.org/2000/svg"
     width="24"
     height="24"
     viewBox="0 0 24 24"
     role="img"
     aria-label="LinkedIn">
  <title>LinkedIn</title>
  <path fill="#FFFFFF" d="M20.447 20.452H16.89V14.82c0-1.343-.027-3.073-1.872-3.073-1.873 0-2.159 1.462-2.159 2.973v5.732H9.302V9h3.414v1.561h.047c.476-.9 1.637-1.85 3.368-1.85 3.6 0 4.266 2.37 4.266 5.455v6.286zM5.337 7.433a1.986 1.986 0 1 1 0-3.972 1.986 1.986 0 0 1 0 3.972zM7.119 20.452H3.554V9h3.565v11.452zM22.225 0H1.771C.792 0 0 .774 0 1.727v20.545C0 23.227.792 24 1.771 24h20.451C23.2 24 24 23.227 24 22.273V1.727C24 .774 23.2 0 22.222 0z"/>
</svg>
